<svg id="Layer_1" data-name="Layer 1" xmlns="http://www.w3.org/2000/svg" viewBox="0 0 1080 785"><defs><style>.cls-1{fill:#e8e8e8;}.cls-2{fill:#b5bfc7;}.cls-3{fill:#03a1fc;}.cls-4{fill:#fd7955;}.cls-5{fill:#131f2d;}.cls-6{fill:#364154;}.cls-7{fill:#ed6343;}.cls-8{fill:#fff;}.cls-9{fill:#026eb7;}.cls-10{fill:#d3d3d3;}.cls-11{fill:#a9c2ff;}.cls-12{fill:#e8f2fa;}</style></defs><path class="cls-1" d="M373.02421,200.35228l18.17619-2.04759a4.054,4.054,0,0,1,3.81617,1.82633q1.57754,2.44987,3.3818,4.80107a68.08553,68.08553,0,0,0,7.19745,8.03641,3.99893,3.99893,0,0,1,.98644,4.40006l-6.97022,17.8a3.92663,3.92663,0,0,0,1.9347,4.98038l15.66087,7.75637a3.88251,3.88251,0,0,0,4.97849-1.38009l9.46952-14.83744a3.8987,3.8987,0,0,1,4.36452-1.68831,70.6675,70.6675,0,0,0,22.17072,2.20775,4.02479,4.02479,0,0,1,4.03037,2.79412l3.20962,10.21575a4.06519,4.06519,0,0,0,4.62045,2.7435l17.00761-3.43963a3.55769,3.55769,0,0,0,.98213-.32614,3.90128,3.90128,0,0,0,2.17571-3.98353l-1.51388-13.57971-.37574-3.30882a69.91948,69.91948,0,0,0,8.24718-5.44738,70.94893,70.94893,0,0,0,9.67781-8.96,3.89823,3.89823,0,0,1,4.35177-1.04973l14.33213,5.63121a4.04024,4.04024,0,0,0,5.09983-1.976l5.93244-11.97238,1.69028-3.4354a4.0928,4.0928,0,0,0-1.45452-5.27317l-12.39371-7.92381a3.89266,3.89266,0,0,1-1.74658-4.24412,70.17083,70.17083,0,0,0,1.8886-14.88209,12.32037,12.32037,0,0,0,.03787-1.26173,2.14862,2.14862,0,0,1,.02739-.42359,3.98893,3.98893,0,0,1,2.81254-3.41574l16.57659-5.24724a2.93113,2.93113,0,0,0,.54012-.21354,4.056,4.056,0,0,0,2.18714-4.39489l-3.403-16.95976a4.036,4.036,0,0,0-4.40217-3.2129L519.37138,130.804a3.90055,3.90055,0,0,1-3.91434-2.05261,71.38551,71.38551,0,0,0-5.9355-9.08031q-1.78641-2.32762-3.72586-4.46175a4.112,4.112,0,0,1-.77689-4.25862l6.6944-17.11044a3.92361,3.92361,0,0,0-1.91059-4.94885l-15.50414-7.65a4.1017,4.1017,0,0,0-5.28912,1.46705l-7.49526,11.73816a4.02834,4.02834,0,0,1-4.68819,1.6602,70.48878,70.48878,0,0,0-21.38625-3.84137,4.00292,4.00292,0,0,1-3.77108-2.817l-4.72256-14.941a4.14157,4.14157,0,0,0-4.741-2.80228l-16.90018,3.38282a3.95775,3.95775,0,0,0-3.16133,4.33735l.08019.7938,1.7658,15.776a4.0473,4.0473,0,0,1-2.18714,4.06772l-.01566.01195a70.122,70.122,0,0,0-10.48537,6.66156c-1.789,1.37266-3.47378,2.81626-5.11,4.32315a3.96906,3.96906,0,0,1-4.17836.81622l-14.54866-5.71642a4.10687,4.10687,0,0,0-5.18745,1.993l-7.62709,15.436a4.43871,4.43871,0,0,0-.3922,1.35744,4.08973,4.08973,0,0,0,1.83034,3.828l9.91678,6.302a4.08545,4.08545,0,0,1,1.85153,3.56052,4.35983,4.35983,0,0,1-.20357,1.112,70.22916,70.22916,0,0,0-3.57021,27.54251,3.95262,3.95262,0,0,1-2.1221,3.7914,4.03154,4.03154,0,0,1-.6316.25841l-13.426,4.23866a4.02042,4.02042,0,0,0-2.72777,4.60851l.07626.39438,3.30263,16.53376A4.09254,4.09254,0,0,0,373.02421,200.35228Zm116.28607-51.61479a47.01308,47.01308,0,0,1,2.46718,8.39539c1.11229,5.712-.04632,14.7263-2.62763,19.9519-.27362.5619-.55862,1.10778-.84412,1.65394-17.785,33.01531-64.40515,26.449-72.08227-10.80226-.99539-4.87107-.37472-11.96313,1.36618-17.3993a24.92665,24.92665,0,0,1,1.39123-3.43191,43.41385,43.41385,0,0,1,8.67529-11.939C446.80274,116.77788,478.791,122.7983,489.31028,148.73749Z"/><path class="cls-2" d="M856.05154,203.33219V662.63362c0,8.03488-5.8009,14.55289-12.95277,14.55289h-662.672c-7.15157,0-12.95277-6.518-12.95277-14.55289V203.33219c0-8.04179,5.8012-14.5531,12.95277-14.5531h662.672C850.25064,188.77909,856.05154,195.2904,856.05154,203.33219Z"/><path class="cls-3" d="M823.29413,177.11122v37.24705H83.75325v-37.247a13.91036,13.91036,0,0,1,13.9116-13.91152H809.383A13.9103,13.9103,0,0,1,823.29413,177.11122Z"/><path class="cls-1" d="M106.376,188.77909a6.4765,6.4765,0,1,1,6.47635,6.47642A6.47644,6.47644,0,0,1,106.376,188.77909Z"/><path class="cls-1" d="M131.89608,188.77909a6.47635,6.47635,0,1,1,6.47635,6.47642A6.47644,6.47644,0,0,1,131.89608,188.77909Z"/><path class="cls-1" d="M158.06024,188.77909a6.4765,6.4765,0,1,1,6.47664,6.47642A6.47669,6.47669,0,0,1,158.06024,188.77909Z"/><path class="cls-1" d="M550.37653,95.77368l4.91539-.55369a1.09594,1.09594,0,0,1,1.03184.49379q.42665.66263.91451,1.29843a18.419,18.419,0,0,0,1.94635,2.17311,1.08193,1.08193,0,0,1,.267,1.19l-1.88516,4.81361a1.06207,1.06207,0,0,0,.52324,1.34683l4.23524,2.09745a1.04992,1.04992,0,0,0,1.34619-.37312l2.56091-4.01253a1.05411,1.05411,0,0,1,1.18013-.45655,19.11261,19.11261,0,0,0,5.99568.59713,1.0884,1.0884,0,0,1,1.08991.75553l.86777,2.76263a1.09939,1.09939,0,0,0,1.24957.74183l4.59914-.93013a.9543.9543,0,0,0,.26566-.08824,1.055,1.055,0,0,0,.58852-1.07725l-.40952-3.67217-.10155-.89486a18.8875,18.8875,0,0,0,2.23025-1.473,19.18426,19.18426,0,0,0,2.61708-2.42312,1.05419,1.05419,0,0,1,1.17682-.28378l3.8758,1.52272a1.09246,1.09246,0,0,0,1.37911-.53432l1.60409-3.23758.4574-.929a1.10705,1.10705,0,0,0-.39346-1.426l-3.35151-2.14278a1.05337,1.05337,0,0,1-.47256-1.14778,18.96624,18.96624,0,0,0,.51106-4.02442,3.29048,3.29048,0,0,0,.01-.34133.58067.58067,0,0,1,.00748-.11441,1.07917,1.07917,0,0,1,.76067-.92378l4.48263-1.41894a.792.792,0,0,0,.14608-.05771,1.09706,1.09706,0,0,0,.59158-1.18855l-.92034-4.58644a1.09159,1.09159,0,0,0-1.19036-.86886l-5.12679.5797a1.0546,1.0546,0,0,1-1.05841-.55507,19.27531,19.27531,0,0,0-1.60518-2.45547q-.48312-.62944-1.00745-1.20659a1.11149,1.11149,0,0,1-.21-1.15162l1.81018-4.62709a1.061,1.061,0,0,0-.51661-1.33826l-4.19265-2.06881a1.109,1.109,0,0,0-1.43027.39682l-2.02716,3.17421a1.08908,1.08908,0,0,1-1.26761.44894,19.059,19.059,0,0,0-5.7834-1.03871,1.08308,1.08308,0,0,1-1.01994-.7618l-1.277-4.04048a1.11994,1.11994,0,0,0-1.282-.75772l-4.57034.91464a1.07065,1.07065,0,0,0-.855,1.1731l.02188.21458.4773,4.26622a1.09443,1.09443,0,0,1-.5913,1.10006l-.00417.0032a18.95418,18.95418,0,0,0-2.83567,1.80148c-.48368.37122-.93942.76165-1.38186,1.1691a1.07328,1.07328,0,0,1-1.12978.22081l-3.93448-1.546a1.11064,1.11064,0,0,0-1.40265.53889l-2.06254,4.17438a1.19761,1.19761,0,0,0-.10628.367,1.10616,1.10616,0,0,0,.495,1.03515l2.68183,1.70422a1.10459,1.10459,0,0,1,.50055.9628,1.18843,1.18843,0,0,1-.05476.30081,18.99425,18.99425,0,0,0-.96571,7.44819,1.06255,1.06255,0,0,1-.74462,1.09505l-3.63064,1.14641a1.08693,1.08693,0,0,0-.7377,1.24614l.02047.10664.8932,4.47118A1.10678,1.10678,0,0,0,550.37653,95.77368Zm31.44677-13.958a12.72371,12.72371,0,0,1,.66713,2.27037,9.987,9.987,0,0,1-.71061,5.39544c-.07389.15194-.15109.29955-.22825.44733-4.80944,8.92816-17.417,7.1524-19.49282-2.92121a10.35665,10.35665,0,0,1,.3694-4.70522,6.72265,6.72265,0,0,1,.37631-.9281,11.73608,11.73608,0,0,1,2.34592-3.22856A10.246,10.246,0,0,1,581.8233,81.81571Z"/><path class="cls-1" d="M103.4666,439.03281l4.91539-.55369a1.096,1.096,0,0,1,1.03184.4938q.42664.66261.91451,1.29843a18.41892,18.41892,0,0,0,1.94635,2.1731,1.082,1.082,0,0,1,.267,1.19l-1.88516,4.8136a1.06207,1.06207,0,0,0,.52324,1.34684l4.23524,2.09744a1.04991,1.04991,0,0,0,1.34619-.37312l2.56091-4.01253a1.05412,1.05412,0,0,1,1.18013-.45655,19.11261,19.11261,0,0,0,5.99568.59713,1.08841,1.08841,0,0,1,1.08991.75554l.86777,2.76263a1.09937,1.09937,0,0,0,1.24957.74182l4.59914-.93012a.954.954,0,0,0,.26566-.08825,1.055,1.055,0,0,0,.58851-1.07725l-.40951-3.67217-.10155-.89486a18.88866,18.88866,0,0,0,2.23025-1.473,19.18489,19.18489,0,0,0,2.61708-2.42312,1.05418,1.05418,0,0,1,1.17682-.28378l3.8758,1.52272a1.09248,1.09248,0,0,0,1.37911-.53432l1.60409-3.23758.45739-.929a1.107,1.107,0,0,0-.39346-1.426l-3.3515-2.14278a1.05335,1.05335,0,0,1-.47256-1.14778,18.96624,18.96624,0,0,0,.51106-4.02442,3.29032,3.29032,0,0,0,.01-.34133.58072.58072,0,0,1,.00748-.11441,1.07917,1.07917,0,0,1,.76067-.92377l4.48263-1.419a.79227.79227,0,0,0,.14608-.05771,1.09706,1.09706,0,0,0,.59158-1.18855l-.92034-4.58644a1.09158,1.09158,0,0,0-1.19037-.86885l-5.12678.57969a1.05458,1.05458,0,0,1-1.05841-.55506,19.27471,19.27471,0,0,0-1.60518-2.45548q-.48312-.62943-1.00745-1.20658a1.11151,1.11151,0,0,1-.21-1.15163l1.81018-4.62708a1.061,1.061,0,0,0-.51661-1.33827l-4.19265-2.0688a1.109,1.109,0,0,0-1.43027.39681l-2.02716,3.17421a1.08909,1.08909,0,0,1-1.26761.449,19.05874,19.05874,0,0,0-5.7834-1.03872,1.08309,1.08309,0,0,1-1.01995-.7618l-1.27695-4.04047a1.12,1.12,0,0,0-1.282-.75773l-4.57034.91464a1.07066,1.07066,0,0,0-.855,1.1731l.02188.21458.4773,4.26623a1.09446,1.09446,0,0,1-.5913,1.10006l-.00417.00319a18.95425,18.95425,0,0,0-2.83567,1.80149c-.48368.37122-.93942.76164-1.38186,1.16909a1.0733,1.0733,0,0,1-1.12979.22082l-3.93447-1.546a1.11064,1.11064,0,0,0-1.40265.53889l-2.06254,4.17438a1.19769,1.19769,0,0,0-.10628.36705,1.10615,1.10615,0,0,0,.49505,1.03515l2.68183,1.70423a1.10459,1.10459,0,0,1,.50055.9628,1.18843,1.18843,0,0,1-.05476.3008,18.99428,18.99428,0,0,0-.96571,7.4482,1.06263,1.06263,0,0,1-.74462,1.095l-3.63064,1.1464a1.08694,1.08694,0,0,0-.7377,1.24614l.02046.10665.89321,4.47118A1.10677,1.10677,0,0,0,103.4666,439.03281Zm31.44677-13.958a12.72478,12.72478,0,0,1,.66713,2.27037,9.987,9.987,0,0,1-.71061,5.39544c-.07389.15194-.15109.29955-.22825.44733-4.80944,8.92817-17.417,7.1524-19.49282-2.9212a10.35663,10.35663,0,0,1,.3694-4.70522,6.72163,6.72163,0,0,1,.37631-.9281,11.73631,11.73631,0,0,1,2.34591-3.22857A10.246,10.246,0,0,1,134.91337,425.07484Z"/><path class="cls-1" d="M21.21576,532.72819l9.59219-1.0805a2.1387,2.1387,0,0,1,2.01358.96362q.83257,1.29307,1.78464,2.53383a35.94364,35.94364,0,0,0,3.79822,4.24073,2.11135,2.11135,0,0,1,.521,2.32217l-3.67882,9.39355a2.0726,2.0726,0,0,0,1.02108,2.6283l8.2649,4.09307a2.04887,2.04887,0,0,0,2.627-.72813l4.9975-7.83028a2.05706,2.05706,0,0,1,2.303-.89094,37.29761,37.29761,0,0,0,11.70033,1.16527,2.124,2.124,0,0,1,2.12691,1.4744l1.69341,5.39115a2.1454,2.1454,0,0,0,2.43849,1.44765l8.975-1.8151a1.86207,1.86207,0,0,0,.51843-.17221,2.05882,2.05882,0,0,0,1.14846-2.10221l-.79915-7.16609-.19817-1.74628a36.86039,36.86039,0,0,0,4.35224-2.87453,37.43829,37.43829,0,0,0,5.10713-4.72862,2.05719,2.05719,0,0,1,2.29651-.55379l7.56346,2.97153a2.13192,2.13192,0,0,0,2.69128-1.0427l3.13031-6.318.8926-1.813a2.16036,2.16036,0,0,0-.76782-2.78282l-6.54033-4.18154a2.05562,2.05562,0,0,1-.92219-2.23986,37.01069,37.01069,0,0,0,.99732-7.85348,6.4221,6.4221,0,0,0,.01942-.6661,1.132,1.132,0,0,1,.0146-.22326,2.10592,2.10592,0,0,1,1.48442-1.80271l8.74766-2.769a1.54469,1.54469,0,0,0,.28506-.11262,2.14087,2.14087,0,0,0,1.15446-2.3194L110.774,496.59a2.13021,2.13021,0,0,0-2.323-1.69554l-10.00471,1.13125a2.058,2.058,0,0,1-2.06544-1.08318,37.61647,37.61647,0,0,0-3.13244-4.79176q-.9428-1.22832-1.966-2.3546a2.169,2.169,0,0,1-.40984-2.24735l3.5325-9.02957a2.0704,2.0704,0,0,0-1.00814-2.61157l-8.18179-4.03719a2.16426,2.16426,0,0,0-2.79112.77437l-3.9559,6.19434a2.12533,2.12533,0,0,1-2.4737.8761,37.19243,37.19243,0,0,0-11.28607-2.027A2.11359,2.11359,0,0,1,62.718,474.2017l-2.49192-7.88482a2.18553,2.18553,0,0,0-2.50179-1.47866l-8.91885,1.78488a2.08933,2.08933,0,0,0-1.66854,2.28925l.0427.41876.93142,8.32535a2.13575,2.13575,0,0,1-1.1539,2.14673l-.00813.00623A36.98805,36.98805,0,0,0,41.4153,483.325c-.94389.72441-1.83325,1.48631-2.69664,2.28144a2.09449,2.09449,0,0,1-2.20474.43091l-7.678-3.01691a2.16737,2.16737,0,0,0-2.73721,1.05162l-4.025,8.14613a2.33672,2.33672,0,0,0-.2074.71629,2.15862,2.15862,0,0,0,.96607,2.02l5.23347,3.32573a2.15551,2.15551,0,0,1,.97681,1.87886,2.31914,2.31914,0,0,1-.10686.587,37.06679,37.06679,0,0,0-1.88455,14.53484,2.07353,2.07353,0,0,1-1.45309,2.13694l-7.085,2.23717a2.12109,2.12109,0,0,0-1.43959,2.43179l.03993.20811,1.74305,8.72533A2.15982,2.15982,0,0,0,21.21576,532.72819Zm61.36708-27.23841a24.8297,24.8297,0,0,1,1.30188,4.43053,19.48914,19.48914,0,0,1-1.38672,10.529c-.14419.2965-.29485.58456-.44543.87294-9.38542,17.423-33.98851,13.95762-38.03943-5.70061a20.21058,20.21058,0,0,1,.72086-9.182,13.12045,13.12045,0,0,1,.73436-1.81115,22.90247,22.90247,0,0,1,4.578-6.30041A19.99464,19.99464,0,0,1,82.58284,505.48978Z"/><path class="cls-4" d="M258.54262,227.85692a2.81777,2.81777,0,0,0-.50232,3.01385.023.023,0,0,0,.00772.01471c.72708,2.009,3.12871,4.25243,5.91831,6.49237.35629.28776.67348.54966.9498.79183.07247.06351.145.12731.21325.19133.05608.04909.11012.10065.16394.148,2.60148,2.39821,1.62255,2.94758,6.296,7.8134,5.329,5.54482,8.99815,5.64446,10.04183,5.13937.883-.43051-.91113-3.37109-2.89892-6.67642-.09643-.15928-.19082-.32068-.28951-.48192-.26489-.43947-.528-.88549-.79088-1.32729-2.3296-3.97778-1.73143-5.84446-1.179-11.76445.44872-4.81054,7.484-26.87609,7.484-26.87609l-10.212-1.759s-3.07569,17.57046-6.46426,20.2763c-1.81183,1.44236-3.84005,1.46028-5.58139,2.52967q-.18462.11144-.36234.22905A13.39912,13.39912,0,0,0,258.54262,227.85692Z"/><path class="cls-5" d="M258.54262,227.85692a2.81777,2.81777,0,0,0-.50232,3.01385.023.023,0,0,0,.00772.01471c.89029,2.00695,3.23133,4.239,5.928,6.4719.35228.29257.66328.5611.94011.8123.07247.06351.145.12731.21325.19133.05608.04909.11012.10065.16394.148,2.60148,2.39821,1.62255,2.94758,6.296,7.8134,5.329,5.54482,8.99815,5.64446,10.04183,5.13937.883-.43051-.91113-3.37109-2.89892-6.67642a22.706,22.706,0,0,1-9.49916-6.99935c-3.209-4.09475-5.349-9.356-7.53387-12.40347q-.18462.11144-.36234.22905A13.39912,13.39912,0,0,0,258.54262,227.85692Z"/><path class="cls-4" d="M340.88871,221.47874c.63058,3.15238,5.12394,2.62639,10.14423,1.39976,5.02008-1.22685,3.82688.23146,10.97146-.55935,7.14494-.79081,9.30936-3.45507,9.52734-4.51725.1949-.9428-3.33548-1.27521-7.12215-1.71118-.47617-.0536-.95453-.11245-1.433-.17144-4.275-.53648-7.406-3.29513-11.28937-5.56071-3.67858-2.14628-9.16777-10.8901-9.16777-10.8901l-9.7985.77617s5.14171,7.80968,7.13067,11.20517c1.16961,1.997,1.10756,4.63785.96182,6.67729A12.57931,12.57931,0,0,0,340.88871,221.47874Z"/><path class="cls-5" d="M351.03294,222.8785c5.02008-1.22685,3.82688.23146,10.97146-.55935,7.14494-.79081,9.30936-3.45507,9.52734-4.51725.1949-.9428-3.33548-1.27521-7.12215-1.71118l-.0351.07269a20.1435,20.1435,0,0,1-10.23228,3.18049c-4.8474.11762-9.98153-1.27092-13.32873-1.2168a12.57931,12.57931,0,0,0,.07523,3.35164C341.51929,224.63112,346.01265,224.10513,351.03294,222.8785Z"/><path class="cls-5" d="M303.339,158.82571l-9.15984,24.64759-11.95847,32.18262a19.368,19.368,0,0,1-6.353-.58055,27.54913,27.54913,0,0,1-6.14424-2.99069s3.32077-34.55511,9.51489-54.39092c1.58737-5.09182,3.36658-9.20995,5.32976-11.528C294.17062,134.81693,303.339,158.82571,303.339,158.82571Z"/><path class="cls-6" d="M294.0259,119.68183c-6.00075-1.93572-23.116.54988-40.309,3.91522l-3.59957-5.9374-37.13612-2.90023s-12.25417,27.17529-5.54534,44.49083a6.27949,6.27949,0,0,0,6.28531,4.23094h.54216s22.1027-.01289,29.27969-.01289c18.46788,0,39.0851-12.69524,41.75206-13.22837,4.36553-.87332,6.11168,7.85746,10.47714,17.025,4.36532,9.16733,41.03474,40.59826,41.03474,40.59826s5.6358.05608,7.96416-.817a7.84028,7.84028,0,0,0,3.41945-2.15866S307.5587,124.04729,294.0259,119.68183Z"/><path class="cls-5" d="M237.81287,4.60746c-5.204-1.33872-12.32649-.00532-13.50724.11114-14.13053,1.39123-18.87778,17.15429-16.73944,29.38253,1.97353,11.28616-3.75083,14.40809-10.38472,23.32227-13.30163,17.87372-4.608,32.94436,5.88831,36.82972,6.29776,2.33084,15.04129-3.54975,15.04129-3.54975.158.06278,27.47325-17.89615,38.67171-28.0197C275.43013,55.38775,251.07336,8.01912,237.81287,4.60746Z"/><path class="cls-4" d="M239.89979,56.3039c.37123,1.30835-5.80913,3.71223-10.52776,2.82828-4.43822-.82774-9.41372-6.02516-8.38767-6.51284,1.6988-.8072,2.84168-2.81444,1.91256-13.66754l.84463.09563,14.201,1.6213s.04289,4.424.373,8.56779A28.04249,28.04249,0,0,0,239.89979,56.3039Z"/><path class="cls-7" d="M237.94259,40.66873s.04289,4.424.373,8.56779c-7.83779.42082-12.55635-6.374-14.57408-10.18909Z"/><path class="cls-4" d="M240.876,44.37769s-18.47691,1.82211-19.43451-9.7017c-.95773-11.52366-3.98746-19.04981,7.769-20.7004,11.75637-1.65073,14.41691,2.55611,15.67217,6.32464C246.13776,24.069,245.65758,43.60677,240.876,44.37769Z"/><path class="cls-5" d="M238.89646,12.15669s-2.327,14.078-12.84993,17.41845c-7.67661,2.4371-11.15338.83021-11.15338.83021A31.28948,31.28948,0,0,0,219.902,18.6924a5.63351,5.63351,0,0,1,3.75782-4.299C229.11472,12.59893,235.72493,7.692,238.89646,12.15669Z"/><path class="cls-5" d="M235.41467,15.15955s3.48179.77587,6.5676,5.269c1.68628,2.45545,3.63948,8.64506,3.30613,11.38558,0,0,3.234-13.02983-1.48133-17.87671C238.807,8.79754,235.41467,15.15955,235.41467,15.15955Z"/><path class="cls-3" d="M206.62907,94.16019c.32913,1.39953.61142,2.687.8407,3.87465.37617,1.91678.63509,3.56868.81717,5.02685.56437,4.54485.394,7.23751.77617,10.18334a25.38361,25.38361,0,0,0,1.38162,5.544c.76437,2.11088,20.84263,3.99227,32.2663,3.23387,3.62753-.23524,6.391-.74674,7.37261-1.59341,4.0748-3.53926,3.66891,4.24493,4.22753-33.0011.27035-18.16746-15.41573-34.34762-15.41573-34.34762s-1.25256,7.76081-16.80928-1.47579c-.55265-.32337-6.67919,8.74877-12.5763,19.91957C203.01326,83.86541,204.79473,86.47592,206.62907,94.16019Z"/><path class="cls-6" d="M294.17914,183.4733l-11.95847,32.18262a19.368,19.368,0,0,1-6.353-.58055,27.54913,27.54913,0,0,1-6.14424-2.99069s3.32077-34.55511,9.51489-54.39092Z"/><path class="cls-3" d="M238.89646,53.07789s16.00668,2.71378,17.88632,9.60578c1.87943,6.89171,14.86563,45.43568,14.86563,45.43568s-10.0623,3.43365-13.82136-.32571c-3.75936-3.75907-13.08066-34.87674-13.08066-34.87674Z"/><path class="cls-8" d="M236.61158,37.58212a3.1768,3.1768,0,0,0,2.82005,1.89487c2.04606,0,2.599-.30575,2.98589-.73924a6.39561,6.39561,0,0,0,.77143-1.268A17.37165,17.37165,0,0,0,236.61158,37.58212Z"/><path class="cls-9" d="M208.28694,103.06169c.56437,4.54485.394,7.23751.77617,10.18334,14.53394.04683,33.96532-11.22389,33.96532-11.22389Z"/><path class="cls-9" d="M243.02843,92.48906s-22.64151-.67471-26.45811-13.54424c-4.19286-14.13832-8.88883,5.81431-8.88883,5.81431l2.49886,12.73435h24.84044Z"/><path class="cls-2" d="M282.49976,57.56819l-1.22365-3.03A8.59424,8.59424,0,0,0,273.3073,49.162H250.73622v75.46684h93.36911V63.48424H291.26915A9.45736,9.45736,0,0,1,282.49976,57.56819Z"/><path class="cls-8" d="M264.81992,95.05391v-5.4401l19.07989-8.3576v5.55853l-13.32458,5.47971L283.89981,97.774v5.63718Z"/><path class="cls-8" d="M303.72812,74.75168h5.08533L291.34984,111.256h-5.08526Z"/><path class="cls-8" d="M330.02192,89.61381v5.4401l-19.07989,8.3573V97.85276l13.32429-5.4795L310.942,86.89369V81.25621Z"/><path class="cls-4" d="M243.02552,95.47247l1.6382-2.57133A13.18128,13.18128,0,0,0,247.779,91.2019c2.16244-1.51883,1.87716-3.79344,2.95726-3.55273l.01347,4.99961-.1174.017c4.64011,1.23931,10.06608-.10743,10.175,1.04747.29868,3.17823-2.15924,4.60894-4.21878,5.60433-1.57615.76189-3.36738,1.90484-6.215,1.01833-2.08175-.64791-5.35765-1.30711-5.35765-1.30711Z"/><path class="cls-3" d="M222.08463,51.60756s-14.69709.96174-18.37167,6.69419c-3.67488,5.73237-8.23131,34.83544-6.32042,44.83066,1.91074,9.99478,48.9777-1.91082,48.9777-1.91082l-1.5015-8.67222s-27.16327.15724-28.71109-3.38056C214.09979,84.46511,222.08463,51.60756,222.08463,51.60756Z"/><path class="cls-4" d="M293.032,63.45183c-.12629.38091,2.2103,4.23167,5.54752,3.5622,2.08051-.41732,4.78614-4.89765,2.40884-5.88539C297.0222,59.48075,293.3691,62.434,293.032,63.45183Z"/><rect class="cls-5" x="405.81325" y="214.05621" width="115.91692" height="0.55955" transform="translate(56.30003 522.542) rotate(-61.90778)"/><rect class="cls-5" x="659.96088" y="151.16823" width="0.55962" height="90.26473" transform="translate(42.56944 501.15125) rotate(-42.82666)"/><path class="cls-1" d="M729.05716,248.72482a24.55059,24.55059,0,0,1-4.57857,17.98057,23.41084,23.41084,0,0,1-15.65614,9.36639l-274.3419,37.69547c-14.0025,1.924-26.94973-7.35244-28.77162-20.61314a23.61956,23.61956,0,0,1,5.13967-18.05456,26.33641,26.33641,0,0,1,17.00666-9.55182L702.1973,227.852C715.14913,226.07225,727.23483,235.46434,729.05716,248.72482Z"/><path class="cls-3" d="M729.05716,248.72482a24.55059,24.55059,0,0,1-4.57857,17.98057,23.41084,23.41084,0,0,1-15.65614,9.36639l-49.644,6.8212-6.62565-48.21974L702.1973,227.852C715.14913,226.07225,727.23483,235.46434,729.05716,248.72482Z"/><path class="cls-8" d="M698.84114,261.80687a12.59759,12.59759,0,0,1-1.85823.11558,12.40342,12.40342,0,0,1-8.52474-21.27365h0a12.40326,12.40326,0,1,1,10.383,21.15807Zm-8.95481-19.697a10.3601,10.3601,0,1,0,14.65055.16991,10.37165,10.37165,0,0,0-14.65055-.16991Z"/><rect class="cls-8" x="681.91086" y="254.92581" width="2.0429" height="16.92633" transform="translate(394.01631 -409.14195) rotate(45.66156)"/><path class="cls-8" d="M672.67144,273.41524v-.00029a1.82372,1.82372,0,0,1,.02943-2.57927l7.13045-6.96672a1.82417,1.82417,0,0,1,2.57926.02986h0a1.8238,1.8238,0,0,1-.02993,2.57934l-7.12994,6.96672A1.824,1.824,0,0,1,672.67144,273.41524Z"/><path class="cls-3" d="M210.91766,505.50341h57.56318a2.03685,2.03685,0,0,1,2.03685,2.03685v1.1562a2.03685,2.03685,0,0,1-2.03685,2.03685H210.91759a2.03685,2.03685,0,0,1-2.03685-2.03685v-1.15613a2.03692,2.03692,0,0,1,2.03692-2.03692Z"/><path class="cls-5" d="M238.94555,528.71461H210.66519a1.78446,1.78446,0,0,1-1.78445-1.78452h0a1.78472,1.78472,0,0,1,1.78445-1.78445h28.28036a1.78472,1.78472,0,0,1,1.78438,1.78445h0A1.78446,1.78446,0,0,1,238.94555,528.71461Z"/><path class="cls-5" d="M210.27073,517.66188h50.60062a1.39,1.39,0,0,1,1.39,1.39v.78885a1.38963,1.38963,0,0,1-1.38963,1.38963H210.27036a1.38963,1.38963,0,0,1-1.38963-1.38963v-.78885a1.39,1.39,0,0,1,1.39-1.39Z"/><path class="cls-5" d="M268.5161,517.66188h47.0668a1.38975,1.38975,0,0,1,1.38975,1.38975v.789a1.38968,1.38968,0,0,1-1.38968,1.38968H268.51623a1.38987,1.38987,0,0,1-1.38987-1.38987v-.78885A1.38975,1.38975,0,0,1,268.5161,517.66188Z"/><path class="cls-5" d="M274.21922,528.71461H245.93893a1.78424,1.78424,0,0,1-1.78423-1.78452h0a1.7845,1.7845,0,0,1,1.78423-1.78445h28.28029a1.78473,1.78473,0,0,1,1.78446,1.78445h0A1.78447,1.78447,0,0,1,274.21922,528.71461Z"/><path class="cls-3" d="M280.712,505.50341h57.56269a2.03716,2.03716,0,0,1,2.03716,2.03716v1.15613a2.03661,2.03661,0,0,1-2.03661,2.03661H280.712a2.03682,2.03682,0,0,1-2.03682-2.03682v-1.15627a2.03682,2.03682,0,0,1,2.03682-2.03682Z"/><path class="cls-3" d="M210.917,544.87708h57.564a2.03666,2.03666,0,0,1,2.03666,2.03666v1.156a2.03666,2.03666,0,0,1-2.03666,2.03666H210.91719a2.03645,2.03645,0,0,1-2.03645-2.03645v-1.15662a2.03625,2.03625,0,0,1,2.03625-2.03625Z"/><path class="cls-5" d="M238.94555,568.08821H210.66519a1.78479,1.78479,0,0,1-1.78445-1.78453h0a1.78445,1.78445,0,0,1,1.78445-1.78445h28.28036a1.78444,1.78444,0,0,1,1.78438,1.78445h0A1.78478,1.78478,0,0,1,238.94555,568.08821Z"/><path class="cls-5" d="M210.27081,557.035h50.60064a1.38989,1.38989,0,0,1,1.38989,1.38989v.78931a1.3897,1.3897,0,0,1-1.3897,1.3897h-50.601a1.38989,1.38989,0,0,1-1.38989-1.38989v-.78895A1.39007,1.39007,0,0,1,210.27081,557.035Z"/><path class="cls-5" d="M268.51646,557.035h47.06646a1.38973,1.38973,0,0,1,1.38973,1.38973v.78951a1.38966,1.38966,0,0,1-1.38966,1.38966H268.51621a1.38985,1.38985,0,0,1-1.38985-1.38985v-.78895A1.3901,1.3901,0,0,1,268.51646,557.035Z"/><path class="cls-5" d="M274.21922,568.08821H245.93893a1.78457,1.78457,0,0,1-1.78423-1.78453h0a1.78422,1.78422,0,0,1,1.78423-1.78445h28.28029a1.78446,1.78446,0,0,1,1.78446,1.78445h0A1.7848,1.7848,0,0,1,274.21922,568.08821Z"/><path class="cls-3" d="M280.71171,544.87708h57.56376a2.03642,2.03642,0,0,1,2.03642,2.03642v1.156a2.0369,2.0369,0,0,1-2.0369,2.0369H280.71185a2.03663,2.03663,0,0,1-2.03663-2.03663v-1.15621A2.03649,2.03649,0,0,1,280.71171,544.87708Z"/><polygon class="cls-6" points="566.277 310.798 533.542 318.416 517.356 347.87 504.996 280.745 566.277 310.798"/><rect class="cls-6" x="536.83358" y="310.24233" width="5.98398" height="34.62046" transform="translate(-88.252 392.52094) rotate(-37.154)"/><path class="cls-1" d="M466.5548,357.2597H542.647a8.0989,8.0989,0,0,1,8.0989,8.0989v76.09184a8.0993,8.0993,0,0,1-8.0993,8.0993H466.5548a8.0989,8.0989,0,0,1-8.0989-8.0989V365.3586A8.0989,8.0989,0,0,1,466.5548,357.2597Z"/><path class="cls-9" d="M470.24685,430.24589l17.93323-32.33039a5.89843,5.89843,0,0,1,9.91554-.62636l10.34357,14.10839a5.89866,5.89866,0,0,0,9.10929.4938h0a5.89877,5.89877,0,0,1,9.30309.77493l11.16235,17.23434a5.899,5.899,0,0,1-4.95133,9.10572H475.40524A5.8991,5.8991,0,0,1,470.24685,430.24589Z"/><path class="cls-9" d="M505.63822,382.805a7.05442,7.05442,0,1,1,7.0542,7.0542A7.05436,7.05436,0,0,1,505.63822,382.805Z"/><path class="cls-1" d="M662.91439,452.03585l-79.75387,10.87881a5.8988,5.8988,0,0,1-6.64211-5.04746l-10.87874-79.75387a5.89853,5.89853,0,0,1,5.04695-6.642L650.441,360.59248a5.89894,5.89894,0,0,1,6.642,5.04725l10.87881,79.75408A5.899,5.899,0,0,1,662.91439,452.03585Z"/><path class="cls-9" d="M586.38916,442.99189l13.3993-34.45825a5.89875,5.89875,0,0,1,9.74008-1.96034l12.155,12.581a5.89906,5.89906,0,0,0,9.09283-.742h0a5.89877,5.89877,0,0,1,9.32254-.48936l13.38882,15.5675a5.89845,5.89845,0,0,1-3.67459,9.69078L592.68437,450.974A5.8987,5.8987,0,0,1,586.38916,442.99189Z"/><path class="cls-9" d="M615.044,391.20266a7.0544,7.0544,0,1,1,7.94318,6.03616A7.05458,7.05458,0,0,1,615.044,391.20266Z"/><path class="cls-10" d="M1062.72279,780.98465l-198.73393-.06834c-.1332-.00028-.242-.67079-.2417-1.49051l.00026-.76343c.00028-.81921.10954-1.49018.24272-1.48991l198.73389.06835c.13331-.00024.242.67079.24173,1.49l-.00022.76342C1062.96523,780.314,1062.856,780.98442,1062.72279,780.98465Z"/><path class="cls-5" d="M408.28048,453.176H403.2194a.83218.83218,0,1,1,0-1.66435h5.0267a.84722.84722,0,0,1,.84944.83218A.81791.81791,0,0,1,408.28048,453.176Zm-10.08793,0h-5.02678a.83218.83218,0,1,1,0-1.66435h5.02678a.83218.83218,0,0,1,0,1.66435Zm-10.05356,0h-5.027a.83218.83218,0,0,1,0-1.66435h5.027a.83218.83218,0,1,1,0,1.66435Zm-10.05384,0h-5.02678a.83218.83218,0,0,1,0-1.66435h5.02678a.83218.83218,0,1,1,0,1.66435Zm-10.05356,0h-5.02678a.83218.83218,0,0,1,0-1.66435h5.02678a.83218.83218,0,1,1,0,1.66435Zm-10.05355,0h-5.02678a.83218.83218,0,0,1,0-1.66435H357.978a.83218.83218,0,0,1,0,1.66435Zm-10.05356,0h-5.02707a.83218.83218,0,0,1,0-1.66435h5.02707a.83218.83218,0,1,1,0,1.66435Zm-10.05384,0h-5.02678a.83218.83218,0,1,1,0-1.66435h5.02678a.83218.83218,0,0,1,0,1.66435Zm-10.05356,0h-5.02677a.83218.83218,0,1,1,0-1.66435h5.02677a.83218.83218,0,0,1,0,1.66435Zm-10.05355,0h-5.02685a.83218.83218,0,1,1,0-1.66435h5.02685a.83218.83218,0,1,1,0,1.66435Zm-10.05355,0h-5.02685a.83218.83218,0,1,1,0-1.66435H307.71a.83218.83218,0,0,1,0,1.66435Zm-10.05385,0h-5.02678a.83218.83218,0,1,1,0-1.66435h5.02678a.83218.83218,0,1,1,0,1.66435Zm-10.05355,0h-5.02685a.83218.83218,0,1,1,0-1.66435h5.02685a.83218.83218,0,0,1,0,1.66435Zm-10.05363,0h-5.02671a.83218.83218,0,1,1,0-1.66435H277.549a.83218.83218,0,1,1,0,1.66435Zm-10.05356,0h-5.02677a.83218.83218,0,1,1,0-1.66435h5.02677a.83218.83218,0,1,1,0,1.66435Zm-10.05355,0h-5.027a.83218.83218,0,0,1,0-1.66435h5.027a.83218.83218,0,1,1,0,1.66435Zm-10.05385,0h-5.02677a.83218.83218,0,0,1,0-1.66435H247.388a.83218.83218,0,0,1,0,1.66435Zm-10.05355,0h-4.4809q-.3012,0-.59824-.01944a.83185.83185,0,1,1,.10568-1.66035c.16292.00991.32716.01544.49256.01544h4.4809a.83218.83218,0,0,1,0,1.66435Zm175.67763-1.46253a.83213.83213,0,0,1-.46846-1.52037,7.65194,7.65194,0,0,0,2.8073-3.47677.83194.83194,0,1,1,1.54331.62184,9.31081,9.31081,0,0,1-3.41523,4.23124A.82874.82874,0,0,1,413.01207,451.7135Zm-185.33833-.3a.82661.82661,0,0,1-.50749-.17348,9.29164,9.29164,0,0,1-3.15507-4.42905.832.832,0,1,1,1.57819-.52723,7.64019,7.64019,0,0,0,2.593,3.63875.83217.83217,0,0,1-.50858,1.491Zm189.06171-8.50136a.8324.8324,0,0,1-.83218-.83218v-5.027a.83221.83221,0,1,1,1.66442,0v5.027A.83241.83241,0,0,1,416.73545,442.91214Zm-192.37126-.51121a.83241.83241,0,0,1-.83217-.83225v-5.02706a.83218.83218,0,0,1,1.66435,0v5.02706A.83237.83237,0,0,1,224.36419,442.40093Zm192.37126-9.54285a.8324.8324,0,0,1-.83218-.83218v-5.02656a.83221.83221,0,0,1,1.66442,0v5.02656A.83242.83242,0,0,1,416.73545,432.85808Zm-192.37126-.51128a.83235.83235,0,0,1-.83217-.83218v-5.02649a.83218.83218,0,1,1,1.66435,0v5.02649A.83231.83231,0,0,1,224.36419,432.3468Zm192.37126-9.54228a.8324.8324,0,0,1-.83218-.83217v-5.02656a.83221.83221,0,0,1,1.66442,0v5.02656A.83241.83241,0,0,1,416.73545,422.80452Zm-192.37126-.51128a.83239.83239,0,0,1-.83217-.83217v-5.02656a.83218.83218,0,1,1,1.66435,0v5.02656A.83235.83235,0,0,1,224.36419,422.29324ZM416.73545,412.751a.83242.83242,0,0,1-.83218-.83225v-5.02649a.83221.83221,0,0,1,1.66442,0v5.02649A.83243.83243,0,0,1,416.73545,412.751Zm-192.37126-.51128a.8324.8324,0,0,1-.83217-.83218V406.381a.83218.83218,0,0,1,1.66435,0v5.02656A.83235.83235,0,0,1,224.36419,412.23969Zm192.37126-9.54235a.83234.83234,0,0,1-.83218-.8321v-5.02656a.83221.83221,0,1,1,1.66442,0v5.02656A.83235.83235,0,0,1,416.73545,402.69734Zm-192.37126-.51121a.83241.83241,0,0,1-.83217-.83224v-5.02656a.83218.83218,0,0,1,1.66435,0v5.02656A.83237.83237,0,0,1,224.36419,402.18613Zm192.37126-9.54234a.8324.8324,0,0,1-.83218-.83218v-5.027a.83221.83221,0,1,1,1.66442,0v5.027A.83242.83242,0,0,1,416.73545,392.64379Zm-192.37126-.51128a.83235.83235,0,0,1-.83217-.83218v-5.027a.83218.83218,0,1,1,1.66435,0v5.027A.83231.83231,0,0,1,224.36419,392.13251Zm192.37126-9.54228a.83235.83235,0,0,1-.83218-.83217V376.731a.83221.83221,0,0,1,1.66442,0v5.02707A.83236.83236,0,0,1,416.73545,382.59023ZM224.36419,382.079a.83239.83239,0,0,1-.83217-.83217v-5.027a.83218.83218,0,1,1,1.66435,0v5.027A.83235.83235,0,0,1,224.36419,382.079Zm192.37126-9.54227a.8324.8324,0,0,1-.83218-.83218v-5.02707a.83221.83221,0,0,1,1.66442,0v5.02707A.83242.83242,0,0,1,416.73545,372.53668Zm-192.37126-.5115a.83241.83241,0,0,1-.83217-.83225v-5.02678a.83218.83218,0,0,1,1.66435,0v5.02678A.83237.83237,0,0,1,224.36419,372.02518Zm192.37126-9.54228a.83241.83241,0,0,1-.83218-.83224v-5.02678a.83221.83221,0,0,1,1.66442,0v5.02678A.83242.83242,0,0,1,416.73545,362.4829Zm-192.37126-.51135a.83239.83239,0,0,1-.83217-.83217V356.1126a.83218.83218,0,0,1,1.66435,0v5.02678A.83235.83235,0,0,1,224.36419,361.97155Zm192.37126-9.54227a.8324.8324,0,0,1-.83218-.83218v-2.26885a7.64948,7.64948,0,0,0-.39788-2.44373.832.832,0,1,1,1.57717-.53072,9.30551,9.30551,0,0,1,.48513,2.97445v2.26885A.83242.83242,0,0,1,416.73545,352.42928Zm-192.37126-.51121a.83246.83246,0,0,1-.83217-.83225v-1.75757a9.28019,9.28019,0,0,1,.68017-3.50146.83217.83217,0,0,1,1.54236.6254,7.6159,7.6159,0,0,0-.55818,2.87606v1.75757A.83241.83241,0,0,1,224.36419,351.91807Zm189.047-8.49539a.82976.82976,0,0,1-.50625-.17217,7.60472,7.60472,0,0,0-4.18142-1.56523.832.832,0,1,1,.10168-1.66086,9.2643,9.2643,0,0,1,5.09327,1.90608.83217.83217,0,0,1-.50728,1.49218Zm-185.30788-.29876a.83215.83215,0,0,1-.46685-1.52138,9.277,9.277,0,0,1,5.19815-1.59582h.00175a.83218.83218,0,0,1,.00175,1.66436,7.61967,7.61967,0,0,0-4.26933,1.30988A.828.828,0,0,1,228.1033,343.12392Zm175.64478-1.45284h-5.02685a.83218.83218,0,0,1,0-1.66436h5.02685a.83218.83218,0,1,1,0,1.66436Zm-10.05363,0h-5.027a.83218.83218,0,0,1,0-1.66436h5.027a.83218.83218,0,1,1,0,1.66436Zm-10.05377,0H378.6139a.83218.83218,0,0,1,0-1.66436h5.02678a.83218.83218,0,0,1,0,1.66436Zm-10.05355,0h-5.02678a.83218.83218,0,0,1,0-1.66436h5.02678a.83218.83218,0,0,1,0,1.66436Zm-10.05363,0h-5.02678a.83218.83218,0,0,1,0-1.66436h5.02678a.83218.83218,0,0,1,0,1.66436Zm-10.05355,0h-5.02678a.83218.83218,0,0,1,0-1.66436h5.02678a.83218.83218,0,0,1,0,1.66436Zm-10.05385,0h-5.02678a.83218.83218,0,0,1,0-1.66436h5.02678a.83218.83218,0,1,1,0,1.66436Zm-10.05348,0h-5.02685a.83218.83218,0,1,1,0-1.66436h5.02685a.83218.83218,0,0,1,0,1.66436Zm-10.05363,0h-5.02677a.83218.83218,0,1,1,0-1.66436H323.319a.83218.83218,0,1,1,0,1.66436Zm-10.05355,0h-5.02678a.83218.83218,0,1,1,0-1.66436h5.02678a.83218.83218,0,0,1,0,1.66436Zm-10.05356,0h-5.02706a.83218.83218,0,0,1,0-1.66436h5.02706a.83218.83218,0,1,1,0,1.66436Zm-10.05384,0h-5.02678a.83218.83218,0,0,1,0-1.66436H293.158a.83218.83218,0,0,1,0,1.66436Zm-10.05356,0h-5.02677a.83218.83218,0,0,1,0-1.66436h5.02677a.83218.83218,0,1,1,0,1.66436Zm-10.05355,0h-5.02685a.83218.83218,0,0,1,0-1.66436h5.02685a.83218.83218,0,1,1,0,1.66436Zm-10.05363,0h-5.027a.83218.83218,0,0,1,0-1.66436h5.027a.83218.83218,0,1,1,0,1.66436Zm-10.05377,0h-5.02685a.83218.83218,0,0,1,0-1.66436h5.02685a.83218.83218,0,0,1,0,1.66436Zm-10.05355,0H237.8632a.83218.83218,0,1,1,0-1.66436H242.89a.83218.83218,0,0,1,0,1.66436Z"/><path class="cls-5" d="M694.03184,592.68467h-4.48636a.737.737,0,1,1,0-1.474h4.453a.75152.75152,0,0,1,.754.737A.723.723,0,0,1,694.03184,592.68467Zm-8.9393,0H680.639a.737.737,0,0,1,0-1.474h4.45352a.737.737,0,1,1,0,1.474Zm-8.90645,0h-4.45294a.737.737,0,1,1,0-1.474h4.45294a.737.737,0,1,1,0,1.474Zm-8.906,0h-4.45293a.737.737,0,1,1,0-1.474h4.45293a.737.737,0,1,1,0,1.474Zm-8.90645,0h-4.45294a.737.737,0,1,1,0-1.474h4.45294a.737.737,0,1,1,0,1.474Zm-8.90594,0h-4.453a.737.737,0,1,1,0-1.474h4.453a.737.737,0,0,1,0,1.474Zm-8.906,0h-4.45293a.737.737,0,1,1,0-1.474h4.45293a.737.737,0,1,1,0,1.474Zm-8.90638,0h-4.453a.737.737,0,0,1,0-1.474h4.453a.737.737,0,1,1,0,1.474Zm-8.90594,0h-4.453a.737.737,0,0,1,0-1.474h4.453a.737.737,0,0,1,0,1.474Zm-8.906,0H609.543q-.0957,0-.18886-.00452a.73737.73737,0,1,1,.07276-1.473c.03831.002.0772.0035.1161.0035h4.30042a.737.737,0,1,1,0,1.474Zm83.06866-2.82151h-.0244a.73784.73784,0,0,1-.71309-.76087l.00153-.06977v-4.35928a.737.737,0,1,1,1.474,0l-.00146,4.4769A.73719.73719,0,0,1,696.91212,589.86316Zm-90.28374-.11908a.73687.73687,0,0,1-.73706-.737v-4.453a.737.737,0,0,1,1.47405,0v4.453A.7369.7369,0,0,1,606.62838,589.74408Zm90.28476-8.78679a.73691.73691,0,0,1-.737-.73706V575.7673a.737.737,0,1,1,1.474,0v4.45293A.73692.73692,0,0,1,696.91314,580.95729Zm-90.28476-.11915a.73687.73687,0,0,1-.73706-.737v-4.45352a.737.737,0,0,1,1.47405,0v4.45352A.7369.7369,0,0,1,606.62838,580.83814Zm90.28476-8.7873a.7369.7369,0,0,1-.737-.737v-4.453a.737.737,0,0,1,1.474,0v4.453A.7369.7369,0,0,1,696.91314,572.05084Zm-90.28476-.11908a.73693.73693,0,0,1-.73706-.73706v-4.3423c0-.04691.00051-.09374.00248-.14057a.72485.72485,0,0,1,.76648-.70654.73714.73714,0,0,1,.70654.76634l-.00145.08077v4.3423A.737.737,0,0,1,606.62838,571.93176ZM694.135,564.6772l-.03292-.00051-.10363-.00247h-4.317a.737.737,0,0,1,0-1.47405h4.317c.05629,0,.11208.001.16845.0035a.73712.73712,0,0,1-.0319,1.47353Zm-8.907-.003h-4.453a.737.737,0,0,1,0-1.47405h4.453a.737.737,0,0,1,0,1.47405Zm-8.90594,0h-4.453a.737.737,0,0,1,0-1.47405h4.453a.737.737,0,0,1,0,1.47405Zm-8.90595,0h-4.45293a.737.737,0,1,1,0-1.47405h4.45293a.737.737,0,1,1,0,1.47405Zm-8.90645,0H654.0568a.737.737,0,1,1,0-1.47405h4.45294a.737.737,0,1,1,0,1.47405Zm-8.90594,0h-4.453a.737.737,0,0,1,0-1.47405h4.453a.737.737,0,0,1,0,1.47405Zm-8.90595,0h-4.45344a.737.737,0,1,1,0-1.47405h4.45344a.737.737,0,0,1,0,1.47405Zm-8.90645,0h-4.45294a.737.737,0,0,1,0-1.47405h4.45294a.737.737,0,1,1,0,1.47405Zm-8.90587,0h-4.453a.737.737,0,0,1,0-1.47405h4.453a.737.737,0,0,1,0,1.47405Zm-8.90646,0h-4.436a.74413.74413,0,0,1-.74551-.737.72976.72976,0,0,1,.72854-.73706h4.453a.737.737,0,0,1,0,1.47405Z"/><path class="cls-5" d="M375.95911,326.9348H371.0008a.83218.83218,0,1,1,0-1.66435h4.92765a.84549.84549,0,0,1,.8474.83218A.81935.81935,0,0,1,375.95911,326.9348Zm-9.88589,0h-4.92766a.83218.83218,0,0,1,0-1.66435h4.92766a.83218.83218,0,0,1,0,1.66435Zm-9.85553,0h-4.92758a.83218.83218,0,0,1,0-1.66435h4.92758a.83218.83218,0,1,1,0,1.66435Zm-9.85523,0h-4.92758a.83218.83218,0,1,1,0-1.66435h4.92758a.83218.83218,0,1,1,0,1.66435Zm-9.85523,0h-4.92758a.83218.83218,0,1,1,0-1.66435h4.92758a.83218.83218,0,0,1,0,1.66435Zm-9.85524,0h-4.92787a.83218.83218,0,0,1,0-1.66435H326.652a.83218.83218,0,1,1,0,1.66435Zm-9.85545,0h-4.92765a.83218.83218,0,1,1,0-1.66435h4.92765a.83218.83218,0,1,1,0,1.66435Zm-9.76361-.53021a.82684.82684,0,0,1-.40953-.10838,4.93726,4.93726,0,0,1-2.49886-4.28724v-.604a.83218.83218,0,1,1,1.66435,0v.60421a3.27006,3.27006,0,0,0,1.65518,2.83942.83213.83213,0,0,1-.41114,1.556Zm72.72735-2.12108a.83222.83222,0,0,1-.77865-1.12518,3.24916,3.24916,0,0,0,.20786-1.14914v-3.45412a.83218.83218,0,0,1,1.66436,0v3.45412a4.91385,4.91385,0,0,1-.31442,1.73522A.83261.83261,0,0,1,379.76028,324.28351Zm-74.80356-6.97394a.83241.83241,0,0,1-.83218-.83225v-4.92758a.83218.83218,0,0,1,1.66435,0v4.92758A.83237.83237,0,0,1,304.95672,317.30957Zm75.06488-2.84991a.83229.83229,0,0,1-.83211-.83217v-4.92766a.83218.83218,0,0,1,1.66436,0v4.92766A.83237.83237,0,0,1,380.0216,314.45966Zm-75.06488-7.00532a.8324.8324,0,0,1-.83218-.83218v-4.92794a.83218.83218,0,0,1,1.66435,0v4.92794A.83235.83235,0,0,1,304.95672,307.45434Zm75.06488-2.84991a.83234.83234,0,0,1-.83211-.83218v-4.92758a.83218.83218,0,1,1,1.66436,0v4.92758A.83242.83242,0,0,1,380.0216,304.60443Zm-75.06488-7.00554a.83242.83242,0,0,1-.83218-.83225v-4.92758a.83218.83218,0,1,1,1.66435,0v4.92758A.83237.83237,0,0,1,304.95672,297.59889ZM380.0216,294.749a.83235.83235,0,0,1-.83211-.83225v-4.92758a.83218.83218,0,1,1,1.66436,0v4.92758A.83243.83243,0,0,1,380.0216,294.749Zm-75.06488-7.0054a.8324.8324,0,0,1-.83218-.83218v-4.92758a.83218.83218,0,1,1,1.66435,0v4.92758A.83235.83235,0,0,1,304.95672,287.74358Zm75.06488-2.84991a.83228.83228,0,0,1-.83211-.8321v-4.92765a.83218.83218,0,1,1,1.66436,0v4.92765A.83236.83236,0,0,1,380.0216,284.89367Zm-75.06488-7.00532a.8324.8324,0,0,1-.83218-.83218v-4.92765a.83218.83218,0,0,1,1.66435,0v4.92765A.83236.83236,0,0,1,304.95672,277.88835Zm75.06488-2.84991a.83229.83229,0,0,1-.83211-.83218v-4.92758a.83218.83218,0,0,1,1.66436,0v4.92758A.83237.83237,0,0,1,380.0216,275.03844Zm-75.06488-7.00562a.83234.83234,0,0,1-.83218-.8321V263.762a4.90879,4.90879,0,0,1,.32119-1.75233.832.832,0,1,1,1.55517.592,3.25254,3.25254,0,0,0-.212,1.16036v3.43868A.83229.83229,0,0,1,304.95672,268.03282Zm75.06488-2.84954a.83235.83235,0,0,1-.83211-.83225v-.589a3.269,3.269,0,0,0-1.66617-2.84539.83212.83212,0,1,1,.81579-1.45059,4.9357,4.9357,0,0,1,2.51474,4.296v.589A.83243.83243,0,0,1,380.0216,265.18328Zm-6.92733-4.6825h-4.92765a.83218.83218,0,0,1,0-1.66435h4.92765a.83218.83218,0,1,1,0,1.66435Zm-9.85545,0h-4.92765a.83218.83218,0,1,1,0-1.66435h4.92765a.83218.83218,0,0,1,0,1.66435Zm-9.8553,0h-4.92758a.83218.83218,0,1,1,0-1.66435h4.92758a.83218.83218,0,1,1,0,1.66435Zm-9.85524,0H338.6007a.83218.83218,0,1,1,0-1.66435h4.92758a.83218.83218,0,1,1,0,1.66435Zm-9.85523,0h-4.92787a.83218.83218,0,1,1,0-1.66435h4.92787a.83218.83218,0,1,1,0,1.66435Zm-9.85545,0H318.89a.83218.83218,0,1,1,0-1.66435h4.92765a.83218.83218,0,0,1,0,1.66435Zm-9.85523,0h-4.91222a.839.839,0,0,1-.83989-.83218.82584.82584,0,0,1,.82445-.83217h4.92766a.83218.83218,0,0,1,0,1.66435Z"/><path class="cls-5" d="M694.03184,633.783h-4.48636a.737.737,0,0,1,0-1.47405h4.453a.75158.75158,0,0,1,.754.737A.723.723,0,0,1,694.03184,633.783Zm-8.9393,0H680.639a.737.737,0,0,1,0-1.47405h4.45352a.737.737,0,0,1,0,1.47405Zm-8.90645,0h-4.45294a.737.737,0,1,1,0-1.47405h4.45294a.737.737,0,1,1,0,1.47405Zm-8.906,0h-4.45293a.737.737,0,1,1,0-1.47405h4.45293a.737.737,0,1,1,0,1.47405Zm-8.90645,0h-4.45294a.737.737,0,1,1,0-1.47405h4.45294a.737.737,0,1,1,0,1.47405Zm-8.90594,0h-4.453a.737.737,0,0,1,0-1.47405h4.453a.737.737,0,0,1,0,1.47405Zm-8.906,0h-4.45293a.737.737,0,0,1,0-1.47405h4.45293a.737.737,0,1,1,0,1.47405Zm-8.90638,0h-4.453a.737.737,0,0,1,0-1.47405h4.453a.737.737,0,0,1,0,1.47405Zm-8.90594,0h-4.453a.737.737,0,0,1,0-1.47405h4.453a.737.737,0,0,1,0,1.47405Zm-8.906,0H609.543q-.0957,0-.18886-.00445a.73793.73793,0,0,1-.7002-.773.72648.72648,0,0,1,.773-.70013c.03831.002.0772.00349.1161.00349h4.30042a.737.737,0,1,1,0,1.47405Zm83.06866-2.82143h-.0244a.738.738,0,0,1-.71309-.761l.00153-.06978v-4.3592a.737.737,0,1,1,1.474,0l-.00146,4.47683A.73727.73727,0,0,1,696.91212,630.96156Zm-90.28374-.11916a.73687.73687,0,0,1-.73706-.737v-4.45294a.737.737,0,1,1,1.47405,0v4.45294A.7369.7369,0,0,1,606.62838,630.8424Zm90.28476-8.78686a.73685.73685,0,0,1-.737-.737v-4.453a.737.737,0,1,1,1.474,0v4.453A.73686.73686,0,0,1,696.91314,622.05554Zm-90.28476-.11908a.73692.73692,0,0,1-.73706-.737V616.746a.737.737,0,1,1,1.47405,0v4.45345A.737.737,0,0,1,606.62838,621.93646Zm90.28476-8.78737a.73685.73685,0,0,1-.737-.737v-4.453a.737.737,0,0,1,1.474,0v4.453A.73686.73686,0,0,1,696.91314,613.14909ZM606.62838,613.03a.73687.73687,0,0,1-.73706-.737v-4.34238c0-.04683.00051-.09366.00248-.14049a.72587.72587,0,0,1,.76648-.70661.7372.7372,0,0,1,.70654.76641l-.00145.08069V612.293A.7369.7369,0,0,1,606.62838,613.03Zm87.50666-7.25449-.03292-.00051-.10363-.00247h-4.317a.737.737,0,0,1,0-1.47405h4.317c.05629,0,.11208.001.16845.0035a.73712.73712,0,0,1-.0319,1.47353Zm-8.907-.003h-4.453a.737.737,0,0,1,0-1.47405h4.453a.737.737,0,0,1,0,1.47405Zm-8.90594,0h-4.453a.737.737,0,0,1,0-1.47405h4.453a.737.737,0,0,1,0,1.47405Zm-8.90595,0h-4.45293a.737.737,0,1,1,0-1.47405h4.45293a.737.737,0,1,1,0,1.47405Zm-8.90645,0H654.0568a.737.737,0,1,1,0-1.47405h4.45294a.737.737,0,1,1,0,1.47405Zm-8.90594,0h-4.453a.737.737,0,0,1,0-1.47405h4.453a.737.737,0,0,1,0,1.47405Zm-8.90595,0h-4.45344a.737.737,0,1,1,0-1.47405h4.45344a.737.737,0,0,1,0,1.47405Zm-8.90645,0h-4.45294a.737.737,0,0,1,0-1.47405h4.45294a.737.737,0,1,1,0,1.47405Zm-8.90587,0h-4.453a.737.737,0,0,1,0-1.47405h4.453a.737.737,0,0,1,0,1.47405Zm-8.90646,0h-4.436a.74419.74419,0,0,1-.74551-.73706.72974.72974,0,0,1,.72854-.737h4.453a.737.737,0,0,1,0,1.47405Z"/><path class="cls-5" d="M342.60813,602.82045H338.1632a.737.737,0,1,1,0-1.47405h4.41456a.75024.75024,0,0,1,.75242.73706A.72426.72426,0,0,1,342.60813,602.82045Zm-8.85955,0H329.334a.737.737,0,1,1,0-1.47405h4.41463a.737.737,0,1,1,0,1.47405Zm-8.82918,0h-4.41463a.737.737,0,1,1,0-1.47405h4.41463a.737.737,0,1,1,0,1.47405Zm-8.82955,0H311.6753a.737.737,0,1,1,0-1.47405h4.41455a.737.737,0,1,1,0,1.47405Zm-8.82917,0h-4.41463a.737.737,0,1,1,0-1.47405h4.41463a.737.737,0,1,1,0,1.47405Zm-8.82918,0h-4.41463a.737.737,0,1,1,0-1.47405h4.41463a.737.737,0,1,1,0,1.47405Zm-8.82926,0h-4.41455a.737.737,0,1,1,0-1.47405h4.41455a.737.737,0,1,1,0,1.47405Zm-8.82917,0h-4.41456a.737.737,0,1,1,0-1.47405h4.41456a.737.737,0,1,1,0,1.47405Zm-8.82918,0H267.529a.737.737,0,1,1,0-1.47405h4.41485a.737.737,0,1,1,0,1.47405Zm-8.82947,0h-4.41456a.737.737,0,1,1,0-1.47405h4.41456a.737.737,0,1,1,0,1.47405Zm-8.82918,0h-4.41463a.737.737,0,1,1,0-1.47405h4.41463a.737.737,0,1,1,0,1.47405Zm-8.82918,0h-4.41463a.737.737,0,1,1,0-1.47405h4.41463a.737.737,0,1,1,0,1.47405Zm-8.82925,0h-4.41456a.737.737,0,1,1,0-1.47405h4.41456a.737.737,0,1,1,0,1.47405Zm-8.82918,0H223.383a.737.737,0,1,1,0-1.47405h4.41463a.737.737,0,1,1,0,1.47405Zm-8.8294,0h-4.4147a.737.737,0,1,1,0-1.47405h4.4147a.737.737,0,1,1,0,1.47405Zm-8.82925,0h-3.52411a8.33786,8.33786,0,0,1-.97449-.05674.73716.73716,0,0,1,.173-1.46414,6.873,6.873,0,0,0,.80152.04683H210.139a.737.737,0,1,1,0,1.47405Zm136.62886-1.27318a.73745.73745,0,0,1-.41186-1.34942,6.78088,6.78088,0,0,0,2.49012-3.03527.73721.73721,0,0,1,1.36144.566,8.2508,8.2508,0,0,1-3.02936,3.69308A.73389.73389,0,0,1,346.76784,601.54727Zm-145.02775-.51972a.73437.73437,0,0,1-.4777-.176,8.23525,8.23525,0,0,1-2.589-4.01441.73728.73728,0,0,1,1.41767-.4056,6.76462,6.76462,0,0,0,2.12713,3.29782.73706.73706,0,0,1-.47814,1.29816Zm148.3593-7.18326a.73715.73715,0,0,1-.73728-.737v-4.41463a.73728.73728,0,0,1,1.47455,0v4.41463A.73714.73714,0,0,1,350.09939,593.84429Zm-151.00594-.86058a.73715.73715,0,0,1-.7372-.73706V587.8321a.73728.73728,0,0,1,1.47455,0v4.41455A.73718.73718,0,0,1,199.09345,592.98371Zm151.00594-7.9686a.73716.73716,0,0,1-.73728-.73705V579.8635a.73728.73728,0,0,1,1.47455,0v4.41456A.73715.73715,0,0,1,350.09939,585.01511Zm-151.00594-.86065a.73708.73708,0,0,1-.7372-.737v-4.41463a.73728.73728,0,0,1,1.47455,0v4.41463A.73711.73711,0,0,1,199.09345,584.15446Zm151.00594-7.9686a.73715.73715,0,0,1-.73728-.737v-4.41463a.73728.73728,0,0,1,1.47455,0v4.41463A.73714.73714,0,0,1,350.09939,576.18586Zm-151.00594-.86058a.73713.73713,0,0,1-.7372-.737v-4.41463a.73728.73728,0,0,1,1.47455,0v4.41463A.73716.73716,0,0,1,199.09345,575.32528Zm151.00594-7.9686a.73715.73715,0,0,1-.73728-.737v-4.41514a.73728.73728,0,0,1,1.47455,0v4.41514A.73714.73714,0,0,1,350.09939,567.35668Zm-151.00594-.86058a.73715.73715,0,0,1-.7372-.73706v-4.41455a.73728.73728,0,0,1,1.47455,0V565.759A.73718.73718,0,0,1,199.09345,566.4961ZM350.09939,558.527a.73716.73716,0,0,1-.73728-.737v-4.41456a.73728.73728,0,0,1,1.47455,0v4.41456A.73715.73715,0,0,1,350.09939,558.527Zm-151.00594-.86014a.73708.73708,0,0,1-.7372-.737v-4.41463a.73728.73728,0,0,1,1.47455,0v4.41463A.73711.73711,0,0,1,199.09345,557.66685Zm151.00594-7.96911a.7371.7371,0,0,1-.73728-.737v-4.41463a.73728.73728,0,0,1,1.47455,0v4.41463A.73709.73709,0,0,1,350.09939,549.69774Zm-151.00594-.86007a.73713.73713,0,0,1-.7372-.737v-4.41463a.73728.73728,0,0,1,1.47455,0v4.41463A.73716.73716,0,0,1,199.09345,548.83767Zm151.00594-7.96911a.73715.73715,0,0,1-.73728-.737V535.717a.73728.73728,0,0,1,1.47455,0v4.41463A.73714.73714,0,0,1,350.09939,540.86856Zm-151.00594-.86007a.73715.73715,0,0,1-.7372-.73706v-4.41455a.73728.73728,0,0,1,1.47455,0v4.41455A.73718.73718,0,0,1,199.09345,540.00849Zm151.00594-7.96911a.73716.73716,0,0,1-.73728-.73705v-4.41456a.73728.73728,0,0,1,1.47455,0v4.41456A.73715.73715,0,0,1,350.09939,532.03938Zm-151.00594-.86014a.73708.73708,0,0,1-.7372-.737v-4.41463a.73728.73728,0,0,1,1.47455,0v4.41463A.73711.73711,0,0,1,199.09345,531.17924Zm151.00594-7.96911a.7371.7371,0,0,1-.73728-.737v-4.41463a.73728.73728,0,0,1,1.47455,0v4.41463A.73709.73709,0,0,1,350.09939,523.21013Zm-151.00594-.86007a.73708.73708,0,0,1-.7372-.737v-4.41463a.73728.73728,0,0,1,1.47455,0v4.41463A.73711.73711,0,0,1,199.09345,522.35006ZM350.09939,514.381a.7371.7371,0,0,1-.73728-.737v-4.41463a.73728.73728,0,0,1,1.47455,0V513.644A.73709.73709,0,0,1,350.09939,514.381Zm-151.00594-.86058a.73715.73715,0,0,1-.7372-.73706v-4.41455a.73728.73728,0,0,1,1.47455,0v4.41455A.73718.73718,0,0,1,199.09345,513.52037Zm151.00594-7.9686a.73716.73716,0,0,1-.73728-.737v-4.41456a.73728.73728,0,0,1,1.47455,0v4.41456A.73715.73715,0,0,1,350.09939,505.55177Zm-151.00594-.86065a.73708.73708,0,0,1-.7372-.737v-4.41463a.73728.73728,0,0,1,1.47455,0v4.41463A.73711.73711,0,0,1,199.09345,504.69112Zm150.71286-7.9407a.73787.73787,0,0,1-.70807-.53313,6.76571,6.76571,0,0,0-2.134-3.29338.73716.73716,0,1,1,.9538-1.12423,8.23354,8.23354,0,0,1,2.597,4.00895.7369.7369,0,0,1-.50406.91244A.72808.72808,0,0,1,349.80631,496.75042Zm-150.13457-.81069a.73782.73782,0,0,1-.67989-1.02162,8.24669,8.24669,0,0,1,3.037-3.687.73721.73721,0,1,1,.81921,1.2259,6.77952,6.77952,0,0,0-2.49587,3.02922A.73723.73723,0,0,1,199.67174,495.93973Zm143.78007-4.57355a.81728.81728,0,0,1-.085-.005,6.93129,6.93129,0,0,0-.78906-.04538h-3.53934a.737.737,0,1,1,0-1.474h3.53934a8.52133,8.52133,0,0,1,.957.05426.73748.73748,0,0,1-.083,1.47011Zm-8.82794-.0504h-4.41463a.737.737,0,1,1,0-1.474h4.41463a.737.737,0,1,1,0,1.474Zm-8.82918,0h-4.41463a.737.737,0,1,1,0-1.474h4.41463a.737.737,0,1,1,0,1.474Zm-8.82925,0h-4.41455a.737.737,0,1,1,0-1.474h4.41455a.737.737,0,1,1,0,1.474Zm-8.82918,0h-4.41463a.737.737,0,1,1,0-1.474h4.41463a.737.737,0,1,1,0,1.474Zm-8.82918,0h-4.41463a.737.737,0,1,1,0-1.474h4.41463a.737.737,0,1,1,0,1.474Zm-8.82947,0H286.063a.737.737,0,1,1,0-1.474h4.41463a.737.737,0,1,1,0,1.474Zm-8.82925,0h-4.41455a.737.737,0,1,1,0-1.474h4.41455a.737.737,0,1,1,0,1.474Zm-8.82918,0h-4.41463a.737.737,0,1,1,0-1.474h4.41463a.737.737,0,1,1,0,1.474Zm-8.82918,0h-4.41463a.737.737,0,1,1,0-1.474H263.99a.737.737,0,1,1,0,1.474Zm-8.82925,0H250.7462a.737.737,0,1,1,0-1.474h4.41455a.737.737,0,1,1,0,1.474Zm-8.82918,0h-4.41485a.737.737,0,1,1,0-1.474h4.41485a.737.737,0,1,1,0,1.474Zm-8.8294,0h-4.41462a.737.737,0,1,1,0-1.474h4.41462a.737.737,0,1,1,0,1.474Zm-8.82925,0h-4.41455a.737.737,0,1,1,0-1.474h4.41455a.737.737,0,1,1,0,1.474Zm-8.82918,0h-4.41463a.737.737,0,1,1,0-1.474h4.41463a.737.737,0,1,1,0,1.474Zm-8.82918,0h-4.39969a.74354.74354,0,0,1-.74478-.737.7306.7306,0,0,1,.72955-.737h4.41492a.737.737,0,1,1,0,1.474Z"/><path class="cls-1" d="M209.69247,356.00095H382.91755a9.573,9.573,0,0,1,9.573,9.573V457.9331a9.5731,9.5731,0,0,1-9.5731,9.5731H209.69177a9.5727,9.5727,0,0,1-9.5727-9.5727V365.57435A9.5734,9.5734,0,0,1,209.69247,356.00095Z"/><path class="cls-3" d="M274.59642,389.636v44.23519a3.4756,3.4756,0,0,0,5.38562,2.90373L313.60032,414.657a3.47548,3.47548,0,0,0,0-5.80681L279.982,386.73225A3.47544,3.47544,0,0,0,274.59642,389.636Z"/><path class="cls-11" d="M210.1188,457.44762A3.45245,3.45245,0,1,1,213.57139,460.9,3.45265,3.45265,0,0,1,210.1188,457.44762Z"/><path class="cls-11" d="M370.656,458.377H214.50073a.92941.92941,0,0,1-.92934-.9294h0a.92946.92946,0,0,1,.92934-.92985H370.656a.92946.92946,0,0,1,.92934.92985h0A.92941.92941,0,0,1,370.656,458.377Z"/><rect class="cls-1" x="380.0216" y="490.5788" width="99.52362" height="148.56563"/><path class="cls-12" d="M825.50567,238.49429H791.11975a2.63549,2.63549,0,0,1-2.6277-2.62784h0a2.63545,2.63545,0,0,1,2.6277-2.62763h34.38592a2.63555,2.63555,0,0,1,2.62814,2.62763h0A2.63559,2.63559,0,0,1,825.50567,238.49429Z"/><path class="cls-12" d="M825.50567,248.76139H791.11975a2.6355,2.6355,0,0,1-2.6277-2.62785h0a2.6355,2.6355,0,0,1,2.6277-2.62791h34.38592a2.6356,2.6356,0,0,1,2.62814,2.62791h0A2.63559,2.63559,0,0,1,825.50567,248.76139Z"/><path class="cls-12" d="M825.50567,259.29337H791.11975a2.63549,2.63549,0,0,1-2.6277-2.62784h0a2.63545,2.63545,0,0,1,2.6277-2.62763h34.38592a2.63555,2.63555,0,0,1,2.62814,2.62763h0A2.63559,2.63559,0,0,1,825.50567,259.29337Z"/><path class="cls-12" d="M690.85157,507.22559H608.9909a3.49493,3.49493,0,0,1-3.48471-3.48427h0a3.495,3.495,0,0,1,3.48471-3.48471h81.86067a3.49476,3.49476,0,0,1,3.48478,3.48471h0A3.49466,3.49466,0,0,1,690.85157,507.22559Z"/><path class="cls-12" d="M290.69756,268.05431h-81.861a3.4946,3.4946,0,0,1-3.48449-3.48449h0a3.49491,3.49491,0,0,1,3.48449-3.48479h81.861a3.49491,3.49491,0,0,1,3.48449,3.48479h0A3.4946,3.4946,0,0,1,290.69756,268.05431Z"/><path class="cls-12" d="M690.85157,541.79447H608.9909a3.4946,3.4946,0,0,1-3.48471-3.48427h0a3.49509,3.49509,0,0,1,3.48471-3.48478h81.86067a3.49482,3.49482,0,0,1,3.48478,3.48478h0A3.49433,3.49433,0,0,1,690.85157,541.79447Z"/><path class="cls-12" d="M690.85157,524.51025h-97.907a3.495,3.495,0,0,1-3.48471-3.48471h0a3.49454,3.49454,0,0,1,3.48471-3.4842h97.907a3.49427,3.49427,0,0,1,3.48478,3.4842h0A3.49471,3.49471,0,0,1,690.85157,524.51025Z"/><path class="cls-8" d="M458.86846,518.6705H409.77681A2.0959,2.0959,0,0,1,407.687,516.581h0a2.096,2.096,0,0,1,2.08978-2.08977h49.09165a2.09581,2.09581,0,0,1,2.08982,2.08977h0A2.09574,2.09574,0,0,1,458.86846,518.6705Z"/><path class="cls-8" d="M458.86846,539.40138H409.77681a2.09571,2.09571,0,0,1-2.08978-2.08951h0a2.096,2.096,0,0,1,2.08978-2.08981h49.09165a2.09583,2.09583,0,0,1,2.08982,2.08981h0A2.09555,2.09555,0,0,1,458.86846,539.40138Z"/><path class="cls-8" d="M458.86846,529.03607H400.15383a2.09593,2.09593,0,0,1-2.08977-2.08977h0a2.09567,2.09567,0,0,1,2.08977-2.08946h58.71463a2.09551,2.09551,0,0,1,2.08982,2.08946h0A2.09577,2.09577,0,0,1,458.86846,529.03607Z"/><path class="cls-12" d="M220.27035,282.9964h46.06691a2.7144,2.7144,0,0,1,2.7144,2.7144v1.54062a2.71418,2.71418,0,0,1-2.71418,2.71418H220.27013a2.71418,2.71418,0,0,1-2.71418-2.71418v-1.54062a2.7144,2.7144,0,0,1,2.7144-2.7144Z"/><path class="cls-12" d="M202.25931,286.4809a3.48464,3.48464,0,1,1,3.48449,3.48471A3.48472,3.48472,0,0,1,202.25931,286.4809Z"/><path class="cls-12" d="M220.27015,296.86431H275.3278a2.714,2.714,0,0,1,2.714,2.714v1.541a2.714,2.714,0,0,1-2.714,2.714H220.27015a2.71421,2.71421,0,0,1-2.71421-2.71421v-1.54057a2.71421,2.71421,0,0,1,2.71421-2.71421Z"/><path class="cls-12" d="M202.25931,300.3488a3.48464,3.48464,0,1,1,3.48449,3.48449A3.48457,3.48457,0,0,1,202.25931,300.3488Z"/><path class="cls-12" d="M220.27013,311.91754h46.06736a2.71418,2.71418,0,0,1,2.71418,2.71418v1.54062a2.7144,2.7144,0,0,1-2.7144,2.7144H220.27035a2.7144,2.7144,0,0,1-2.7144-2.7144v-1.54062A2.71418,2.71418,0,0,1,220.27013,311.91754Z"/><path class="cls-12" d="M202.25931,315.40225a3.48464,3.48464,0,1,1,3.48449,3.48449A3.48477,3.48477,0,0,1,202.25931,315.40225Z"/><path class="cls-5" d="M350.422,297.76975a12.48487,12.48487,0,0,1-1.84206.11464,12.29374,12.29374,0,0,1-8.44922-21.08582v-.0003A12.29384,12.29384,0,1,1,350.422,297.76975Zm-8.876-19.52307a10.26884,10.26884,0,1,0,14.52149.1681,10.2804,10.2804,0,0,0-14.52149-.1681Z"/><rect class="cls-5" x="333.641" y="290.94952" width="2.02498" height="16.77718" transform="translate(314.85953 -149.2201) rotate(45.66156)"/><path class="cls-5" d="M324.48284,309.27572h0a1.80794,1.80794,0,0,1,.02965-2.55669l7.06716-6.90518a1.80771,1.80771,0,0,1,2.55661.02964h0a1.8076,1.8076,0,0,1-.02971,2.5564l-7.06709,6.90547A1.80819,1.80819,0,0,1,324.48284,309.27572Z"/><path class="cls-5" d="M923.55474,777.42723h0a4.03764,4.03764,0,0,1-3.67611-2.53149L825.42294,487.29838a1.89434,1.89434,0,0,1,2.00221-2.56433h0a4.037,4.037,0,0,1,3.67561,2.53141l94.45576,287.59736A1.894,1.894,0,0,1,923.55474,777.42723Z"/><path class="cls-5" d="M999.68034,776.98667h0a4.03712,4.03712,0,0,1-3.67567-2.53142l-94.4562-287.59743a1.89459,1.89459,0,0,1,2.00229-2.56433h0a4.03718,4.03718,0,0,1,3.6756,2.53148l94.4562,287.59736A1.89422,1.89422,0,0,1,999.68034,776.98667Z"/><path class="cls-5" d="M917.71392,526.93162l-76.444.44252a3.82446,3.82446,0,0,1-3.46978-2.39h0a1.792,1.792,0,0,1,1.88963-2.42078l76.444-.44253a3.82434,3.82434,0,0,1,3.46978,2.3899h0A1.79191,1.79191,0,0,1,917.71392,526.93162Z"/><path class="cls-5" d="M934.20573,577.14564l-76.44395.442a3.82385,3.82385,0,0,1-3.46978-2.38947h0a1.79221,1.79221,0,0,1,1.88962-2.42129l76.444-.44253a3.82468,3.82468,0,0,1,3.46978,2.39h0A1.79242,1.79242,0,0,1,934.20573,577.14564Z"/><path class="cls-5" d="M950.08918,625.50689l-76.444.44253a3.825,3.825,0,0,1-3.46978-2.3899h0a1.79208,1.79208,0,0,1,1.88962-2.42086l76.444-.44253a3.82385,3.82385,0,0,1,3.46978,2.39h0A1.792,1.792,0,0,1,950.08918,625.50689Z"/><path class="cls-5" d="M967.97033,679.95164l-76.44352.44253a3.82365,3.82365,0,0,1-3.46978-2.38991h0a1.79221,1.79221,0,0,1,1.88962-2.42136l76.44352-.442a3.8237,3.8237,0,0,1,3.46978,2.38983h0A1.7919,1.7919,0,0,1,967.97033,679.95164Z"/><path class="cls-5" d="M986.68613,736.93683l-76.444.44253a3.82451,3.82451,0,0,1-3.46985-2.3899h0a1.79223,1.79223,0,0,1,1.89013-2.42086l76.44351-.44253a3.82393,3.82393,0,0,1,3.46985,2.39h0A1.7919,1.7919,0,0,1,986.68613,736.93683Z"/><path class="cls-5" d="M822.125,355.57736h0a1.11287,1.11287,0,0,1-1.30012-.8785l-1.22336-6.31939a1.11333,1.11333,0,0,1,.8785-1.30012h0a1.113,1.113,0,0,1,1.30019.87827l1.22329,6.31969A1.11239,1.11239,0,0,1,822.125,355.57736Z"/><rect class="cls-5" x="818.9194" y="336.3364" width="0.76284" height="9.30313" transform="translate(-49.86307 161.87693) rotate(-10.95268)"/><path class="cls-4" d="M818.7943,284.94007s-.72257-6.29078-2.24694-8.69539c-1.52488-2.4044-7.28689-3.94916-7.65163-3.59592-1.12824,1.09306,3.33322,4.95678,3.50765,6.38072.17487,1.424-2.26441.43932-1.09284,3.21515.9892,2.34461,4.25017,5.3849,4.25017,5.3849Z"/><path class="cls-9" d="M816.01569,284.23921c2.10185-1.64921,2.54787-1.6176,2.54787-1.6176s19.43786,16.83973,21.33054,18.33912c1.8921,1.49968,31.08708,9.96565,31.08708,9.96565L875.62,334.659s-39.50367-19.08033-44.22376-22.974c-7.80064-6.43447-17.6424-24.44169-17.6424-24.44169A7.44452,7.44452,0,0,1,816.01569,284.23921Z"/><path class="cls-5" d="M871.60805,512.32593s-.33488,8.11157-1.8921,10.08342l-21.66738.125c.151-.83611.24216-2.7706,3.2381-3.29389a14.53516,14.53516,0,0,0,10.52339-8.30392C864.22349,505.67238,871.60805,512.32593,871.60805,512.32593Z"/><path class="cls-5" d="M914.12856,511.15684s1.51038,10.7756-.54071,10.964c-.27253.02491-8.73151.16147-12.39415.22221-4.308.07225-11.38557-.07968-11.38557-.07968a1.126,1.126,0,0,1-1.02008-1.69385,4.54062,4.54062,0,0,1,3.25507-2.08838c3.77319-.72664,10.06149-3.49825,12.26611-8.54069C906.62885,504.63533,914.12856,511.15684,914.12856,511.15684Z"/><path class="cls-5" d="M860.34155,400.73205s6.02472,21.08181,23.2919,57.69129c17.26776,36.60941,18.01421,54.25291,18.01421,54.25291a15.171,15.171,0,0,0,6.08146.55462,16.35292,16.35292,0,0,0,6.39944-2.074s-1.1187-43.57548-9.2747-62.05007c-8.1565-18.47516-9.81838-69.03055-9.81838-69.03055Z"/><path class="cls-6" d="M850.6692,382.59271a525.75321,525.75321,0,0,0,5.16807,72.7256c5.64847,40.08166,3.00737,58.72179,3.00737,58.72179s1.49691,1.08986,6.10185,1.07187c5.39035-.02142,8.152-2.24839,8.152-2.24839s8.08374-40.09616,5.76609-60.158c-2.31773-20.06181,11.07014-68.84068,11.07014-68.84068Z"/><path class="cls-4" d="M877.3611,306.20083l-6.37992,4.72555-9.22086-1.94126c.12752-.84085.736-4.32585,1.29014-7.48267.03386-.18616.06722-.37224.09869-.55418.47486-2.68618.8849-4.99334.8849-4.99334l8.612-4.29256,3.21115-1.60034c-.00845.0566-.24916,2.98094-.28251,3.40773A27.575,27.575,0,0,0,877.3611,306.20083Z"/><path class="cls-3" d="M895.636,386.6246c-2.08546,9.54133-46.73477,5.35292-46.15226-.47136.02243-.19439.139-2.89026.29948-6.52347.33889-7.86023.85461-20.14156.92089-21.10134,0-.01668.00546-.03336.00546-.04982.80428-8.11011,1.57571-16.04236,1.62553-21.22362a73.61525,73.61525,0,0,1,1.4865-13.25749c.75993-3.84975,1.69232-7.34443,2.50206-10.06805a11.131,11.131,0,0,1,6.52347-7.15034,9.63663,9.63663,0,0,1,1.08134-.37726c5.25328-1.52532,12.52575-3.41144,14.49512-2.8344,5.33595,1.56967,9.30259,10.9665,12.10909,22.94282C895.78594,348.92636,897.00085,380.40615,895.636,386.6246Z"/><path class="cls-7" d="M874.92838,293.60355c-1.89115,3.61909-8.93836,6.74852-11.87792,7.8989.03386-.18616.06722-.37224.09869-.55418.47486-2.68618.8849-4.99334.8849-4.99334l8.612-4.29256C874.54965,291.63323,875.70877,292.11407,874.92838,293.60355Z"/><path class="cls-4" d="M859.84877,295.45086s15.5375,4.84659,18.40685-4.87558c2.86928-9.72239,6.80752-15.6447-2.99142-19.15039-9.79893-3.50561-12.83019-.36722-14.57728,2.64511C858.93976,277.0821,855.88112,293.93945,859.84877,295.45086Z"/><path class="cls-5" d="M861.2974,273.13316s.99058,11.31376,3.33016,10.82244c2.33965-.49111,4.462-.85505,4.11915,2.55516-.34231,3.41049-3.5869,7.34865,3.62381,7.95192,7.21064.60348,17.57664-17.99251,15.59584-21.51342C882.25067,262.79,853.03623,260.74,861.2974,273.13316Z"/><path class="cls-9" d="M849.7832,379.62977c.33889-7.86023.85461-20.14156.92089-21.10134,0-.01668.00546-.03336.00546-.04982l26.377-15.77077S878.10712,379.5246,849.7832,379.62977Z"/><path class="cls-4" d="M828.817,346.62786a69.7262,69.7262,0,0,0-6.37744-3.94216c-1.01659-.31595-4.34981-.65833-4.5048-.3957-.15454.26263-.61149,1.06662-.02891,1.339.58251.27232,1.30755.17662,1.08978.367-.21725.19009-2.40891-.85286-2.91414.2646-.50582,1.11753-.95031,4.94579,1.621,6.10665,2.57082,1.1608,8.91789.11187,9.37535.24494C830.95924,351.74036,828.817,346.62786,828.817,346.62786Z"/><path class="cls-3" d="M828.76715,345.64769s26.16315,4.44777,28.48189,3.319c3.69993-1.80164-1.43617-28.34679-1.43617-28.34679s-.22075-6.016,6.8065-7.435c6.10694-1.233,11.99852,3.34123,11.99852,3.34123s5.35795,4.79459,4.67369,10.11241c-1.51788,11.788-3.87836,35.76332-11.76277,39.43834-10.16914,4.74-39.59536-13.14439-39.59536-13.14439a5.14682,5.14682,0,0,1-.8407-3.42812A7.99381,7.99381,0,0,1,828.76715,345.64769Z"/><path class="cls-4" d="M811.18745,281.92825s-1.67484-3.32848-1.94242-3.95345c-.2681-.62461.38419-.49009,1.02853-.14122.64485.34857,1.52335,2.28051,2.517,2.0473C813.5799,279.696,811.18745,281.92825,811.18745,281.92825Z"/><path d="M698.67283,104.776V48.18957h20.5216q9.27348,0,14.1371,3.8383,4.86361,3.83868,4.86438,11.17287a11.90957,11.90957,0,0,1-1.9944,6.97354,15.94265,15.94265,0,0,1-6.25224,4.95938,13.8672,13.8672,0,0,1,7.18255,5.0734,14.849,14.849,0,0,1,2.39419,8.68367q0,8.01939-5.14864,11.95193-5.15093,3.93332-15.715,3.93331Zm10.41281-33.93664h8.70268q4.97763,0,7.44858-1.74814a6.002,6.002,0,0,0,2.47019-5.2444,5.91566,5.91566,0,0,0-2.47019-5.30142q-2.46944-1.65312-8.05663-1.65312h-8.09463Zm0,25.234h8.70268q5.77569,0,8.41841-2.03315,2.64045-2.03278,2.64045-6.47951,0-4.14194-2.60244-6.19448-2.604-2.05217-7.96238-2.05216h-9.19672Z"/><path d="M744.42839,104.776l17.06333-56.5864h13.301l17.02533,56.5864H781.17725L777.681,92.387H758.14746l-3.61028,12.389Zm16.26527-21.39566h14.40312l-7.22056-25.31Z"/><path d="M828.33892,87.90266l9.80476,2.69821a20.1738,20.1738,0,0,1-7.44858,11.22987q-5.35842,3.89568-13.377,3.8953-11.02009,0-16.64529-7.33457-5.62521-7.33419-5.62444-21.62368,0-14.0231,5.96646-21.64268,5.96723-7.61922,16.91132-7.61959,7.63859,0,12.541,3.80029a18.52116,18.52116,0,0,1,6.53651,10.98286l-9.80476,2.39418a11.60651,11.60651,0,0,0-3.55252-6.15648,9.5083,9.5083,0,0,0-6.32825-2.09016,9.28348,9.28348,0,0,0-8.62667,5.0734q-2.85022,5.07339-2.85022,15.33419,0,9.95753,2.85022,14.70714,2.85023,4.75075,8.85469,4.75037a10.70737,10.70737,0,0,0,6.80253-2.26117A11.55211,11.55211,0,0,0,828.33892,87.90266Z"/><path d="M846.27631,104.776V48.18957h10.56483v26.146l18.92547-26.146h12.12294l-15.92324,20.6356,18.58345,35.9508H878.42681l-13.567-26.79208-8.01862,10.22279V104.776Z"/><path d="M898.26436,104.776V48.18957h36.74886v9.19671h-26.146v13.377h19.03948V79.808H908.86718V95.12322H936.1533V104.776Z"/><path d="M944.66749,104.776V48.18957h11.36288l16.26527,28.42621q1.86062,3.30626,3.45826,6.68852,1.59613,3.38265,2.92623,6.84053-.41955-2.50819-.608-5.37742-.19154-2.86845-.19-6.13747V48.18957h9.88077V104.776h-9.88077L960.2107,75.5897q-1.44564-2.46943-3.06-5.92846-1.61438-3.45789-3.3245-7.6766.37851,2.31894.5518,5.0924.16873,2.775.17026,6.4225V104.776Z"/><path d="M1000.37982,104.776V48.18957h17.29135q13.111,0,19.81778,7.10655,6.70827,7.10731,6.70828,20.97763,0,14.21349-6.74477,21.35766-6.747,7.145-20.19933,7.14456Zm10.67883-9.34873h5.81445q8.73993,0,12.617-4.50335,3.87631-4.50334,3.87631-14.65014,0-9.61437-4.02832-14.1371-4.02908-4.52159-12.617-4.52235h-5.66244Z"/></svg>